<?xml version="1.0" standalone="no"?>
<!DOCTYPE svg PUBLIC "-//W3C//DTD SVG 20010904//EN"
 "http://www.w3.org/TR/2001/REC-SVG-20010904/DTD/svg10.dtd">
<svg version="1.0" xmlns="http://www.w3.org/2000/svg"
 width="502.000000pt" height="502.000000pt" viewBox="0 0 502.000000 502.000000"
 preserveAspectRatio="xMidYMid meet">
<metadata>
Created by potrace 1.11, written by Peter Selinger 2001-2013
</metadata>
<g transform="translate(0.000000,502.000000) scale(0.100000,-0.100000)"
fill="#000000" stroke="none">
<path d="M2498 4996 c-1 -2 -61 -6 -133 -10 -71 -3 -139 -8 -150 -10 -11 -2
-45 -7 -75 -11 -30 -4 -82 -13 -115 -21 -33 -7 -71 -15 -85 -18 -170 -32 -445
-138 -645 -249 -145 -81 -357 -231 -441 -311 -6 -6 -33 -32 -60 -57 -385 -364
-644 -834 -745 -1352 -5 -29 -12 -72 -15 -97 -3 -25 -7 -51 -10 -59 -16 -49
-23 -385 -10 -526 30 -344 131 -689 280 -960 64 -115 77 -137 138 -228 87
-130 147 -180 264 -219 58 -19 90 -23 204 -23 142 0 178 4 300 30 75 16 279
81 348 111 422 182 769 424 943 656 125 168 133 296 26 395 -36 33 -152 98
-222 124 -48 18 -221 55 -307 64 -20 3 -49 6 -65 9 -31 5 -115 13 -213 21
-138 12 -298 26 -335 31 -93 11 -130 16 -149 20 -11 2 -38 6 -61 9 -135 19
-319 81 -408 139 -152 97 -218 219 -224 411 -3 126 26 279 73 388 70 158 230
346 404 475 47 34 90 66 96 71 35 28 233 141 342 195 328 162 823 322 1182
381 19 3 53 10 75 15 22 5 108 18 190 30 294 40 300 41 570 55 151 8 295 9
445 5 52 -1 97 1 100 6 10 17 -249 179 -411 257 -186 89 -464 183 -601 202
-24 3 -50 8 -58 10 -42 12 -169 26 -285 31 -71 3 -135 7 -142 9 -6 2 -13 2
-15 1z"/>
<path d="M4640 4370 c-42 -7 -85 -13 -185 -25 -22 -3 -71 -10 -110 -15 -38 -6
-86 -13 -105 -16 -30 -4 -272 -44 -365 -59 -16 -3 -97 -19 -180 -35 -82 -16
-161 -31 -175 -33 -14 -3 -64 -14 -112 -26 -48 -11 -98 -22 -110 -25 -46 -8
-236 -58 -353 -92 -634 -186 -981 -395 -1057 -638 -68 -217 79 -324 578 -421
66 -13 143 -27 170 -31 27 -3 51 -8 54 -9 3 -2 26 -6 50 -10 25 -3 68 -10 95
-15 28 -5 64 -12 80 -15 98 -17 203 -36 225 -40 104 -22 130 -28 167 -36 188
-38 431 -122 563 -192 197 -106 323 -250 367 -420 15 -60 21 -225 9 -292 -3
-16 -8 -52 -11 -78 -24 -211 -140 -518 -290 -772 -67 -112 -202 -310 -240
-351 -5 -6 -21 -26 -35 -44 -92 -124 -381 -430 -563 -598 -57 -53 -57 -54 -25
-47 75 15 226 63 373 118 72 28 338 168 420 222 266 175 534 437 705 690 163
241 283 504 351 770 12 44 23 91 25 105 3 14 7 32 9 40 14 51 42 264 45 350 7
183 1 370 -15 495 -5 35 -9 63 -31 182 -40 223 -180 572 -316 790 -50 82 -190
270 -247 333 -22 25 -41 48 -41 52 0 10 123 85 230 141 84 44 113 60 99 56 -2
-1 -24 -5 -49 -9z"/>
</g>
</svg>
